<svg xmlns="http://www.w3.org/2000/svg" width="64" height="64.0378" viewBox="0 0 64 64.0378"><g data-name="Layer 2"><g><rect width="64" height="64" fill="#bad6c3"/><g><path d="M1,.0378a.9448.9448,0,0,0-1,1,.9448.9448,0,0,0,1,1,.9448.9448,0,0,0,1-1A.9448.9448,0,0,0,1,.0378Z" fill="#3cafee"/><path d="M5,.0378a.9448.9448,0,0,0-1,1,.9448.9448,0,0,0,1,1,.9448.9448,0,0,0,1-1A.9448.9448,0,0,0,5,.0378Z" fill="#5ebbe0"/><path d="M9,.0378a.9448.9448,0,0,0-1,1,.9448.9448,0,0,0,1,1,.9448.9448,0,0,0,1-1A.9448.9448,0,0,0,9,.0378Z" fill="#5ebbe0"/><path d="M13,.0378a.9448.9448,0,0,0-1,1,1,1,0,1,0,2,0A.9448.9448,0,0,0,13,.0378Z" fill="#5ebbe0"/><path d="M17,.0378a.9448.9448,0,0,0-1,1,1,1,0,1,0,2,0A.9448.9448,0,0,0,17,.0378Z" fill="#5ebbe0"/><path d="M21,.0378a.9448.9448,0,0,0-1,1,1,1,0,1,0,2,0A.9448.9448,0,0,0,21,.0378Z" fill="#5ebbe0"/><path d="M25,.0378a.9448.9448,0,0,0-1,1,1,1,0,1,0,2,0A.9448.9448,0,0,0,25,.0378Z" fill="#5ebbe0"/><path d="M29,.0378a.9448.9448,0,0,0-1,1,1,1,0,1,0,2,0A.9448.9448,0,0,0,29,.0378Z" fill="#5ebbe0"/><path d="M33,.0378a.9448.9448,0,0,0-1,1,1,1,0,0,0,2,0A.9448.9448,0,0,0,33,.0378Z" fill="#5ebbe0"/><path d="M37,.0378a.9448.9448,0,0,0-1,1,1,1,0,0,0,2,0A.9448.9448,0,0,0,37,.0378Z" fill="#5ebbe0"/><path d="M41,.0378a.9448.9448,0,0,0-1,1,1,1,0,0,0,2,0A.9448.9448,0,0,0,41,.0378Z" fill="#5ebbe0"/><path d="M45,.0378a.9448.9448,0,0,0-1,1,1,1,0,0,0,2,0A.9448.9448,0,0,0,45,.0378Z" fill="#5ebbe0"/><path d="M49,.0378a.9448.9448,0,0,0-1,1,1,1,0,0,0,2,0A.9448.9448,0,0,0,49,.0378Z" fill="#5ebbe0"/><path d="M53,.0378a.9448.9448,0,0,0-1,1,1,1,0,0,0,2,0A.9448.9448,0,0,0,53,.0378Z" fill="#5ebbe0"/><path d="M57,.0378a.9448.9448,0,0,0-1,1,1,1,0,0,0,2,0A.9448.9448,0,0,0,57,.0378Z" fill="#48a4d6"/><path d="M61,.0378a.9448.9448,0,0,0-1,1,1,1,0,0,0,2,0A.9448.9448,0,0,0,61,.0378Z" fill="#5ebbe0"/><path d="M3,2.0378a.9448.9448,0,0,0-1,1,.9448.9448,0,0,0,1,1,.9448.9448,0,0,0,1-1A.9448.9448,0,0,0,3,2.0378Z" fill="#5ebbe0"/><path d="M7,2.0378a.9448.9448,0,0,0-1,1,.9448.9448,0,0,0,1,1,.9448.9448,0,0,0,1-1A.9448.9448,0,0,0,7,2.0378Z" fill="#5ebbe0"/><path d="M11,2.0378a.9448.9448,0,0,0-1,1,.9448.9448,0,0,0,1,1,.9448.9448,0,0,0,1-1A.9448.9448,0,0,0,11,2.0378Z" fill="#5ebbe0"/><path d="M15,2.0378a.9448.9448,0,0,0-1,1,1,1,0,1,0,2,0A.9448.9448,0,0,0,15,2.0378Z" fill="#5ebbe0"/><path d="M19,2.0378a.9448.9448,0,0,0-1,1,1,1,0,1,0,2,0A.9448.9448,0,0,0,19,2.0378Z" fill="#5ebbe0"/><path d="M23,2.0378a.9448.9448,0,0,0-1,1,1,1,0,1,0,2,0A.9448.9448,0,0,0,23,2.0378Z" fill="#5ebbe0"/><path d="M27.5,2.0378a.9448.9448,0,0,0-1,1,1,1,0,1,0,2,0A.9448.9448,0,0,0,27.5,2.0378Z" fill="#5ebbe0"/><path d="M31,2.0378a.9448.9448,0,0,0-1,1,1,1,0,0,0,2,0A.9448.9448,0,0,0,31,2.0378Z" fill="#5ebbe0"/><path d="M35,2.0378a.9448.9448,0,0,0-1,1,1,1,0,0,0,2,0A.9448.9448,0,0,0,35,2.0378Z" fill="#5ebbe0"/><path d="M39,2.0378a.9448.9448,0,0,0-1,1,1,1,0,0,0,2,0A.9448.9448,0,0,0,39,2.0378Z" fill="#5ebbe0"/><path d="M43,2.0378a.9448.9448,0,0,0-1,1,1,1,0,0,0,2,0A.9448.9448,0,0,0,43,2.0378Z" fill="#60b4e3"/><path d="M47,2.0378a.9448.9448,0,0,0-1,1,1,1,0,0,0,2,0A.9448.9448,0,0,0,47,2.0378Z" fill="#48a4d6"/><path d="M51,2.0378a.9448.9448,0,0,0-1,1,1,1,0,0,0,2,0A.9448.9448,0,0,0,51,2.0378Z" fill="#5ebbe0"/><path d="M55,2.0378a.9448.9448,0,0,0-1,1,1,1,0,0,0,2,0A.9448.9448,0,0,0,55,2.0378Z" fill="#5ebbe0"/><path d="M59.5,2.0378a.9448.9448,0,0,0-1,1,1,1,0,0,0,2,0A.9448.9448,0,0,0,59.5,2.0378Z" fill="#5ebbe0"/><path d="M63,2.0378a.9448.9448,0,0,0-1,1,1,1,0,1,0,2,0A.9448.9448,0,0,0,63,2.0378Z" fill="#5ebbe0"/><path d="M1,4.0378a.9448.9448,0,0,0-1,1,.9448.9448,0,0,0,1,1,.9448.9448,0,0,0,1-1A.9448.9448,0,0,0,1,4.0378Z" fill="#5ebbe0"/><path d="M5,4.0378a.9448.9448,0,0,0-1,1,.9448.9448,0,0,0,1,1,.9448.9448,0,0,0,1-1A.9448.9448,0,0,0,5,4.0378Z" fill="#5ebbe0"/><path d="M9,4.0378a.9448.9448,0,0,0-1,1,.9448.9448,0,0,0,1,1,.9448.9448,0,0,0,1-1A.9448.9448,0,0,0,9,4.0378Z" fill="#5ebbe0"/><path d="M13,4.0378a.9448.9448,0,0,0-1,1,1,1,0,1,0,2,0A.9448.9448,0,0,0,13,4.0378Z" fill="#5ebbe0"/><path d="M17,4.0378a.9448.9448,0,0,0-1,1,1,1,0,1,0,2,0A.9448.9448,0,0,0,17,4.0378Z" fill="#5ebbe0"/><path d="M21,4.0378a.9448.9448,0,0,0-1,1,1,1,0,1,0,2,0A.9448.9448,0,0,0,21,4.0378Z" fill="#5ebbe0"/><path d="M25,4.0378a.9448.9448,0,0,0-1,1,1,1,0,1,0,2,0A.9448.9448,0,0,0,25,4.0378Z" fill="#5ebbe0"/><path d="M29,4.0378a.9448.9448,0,0,0-1,1,1,1,0,0,0,2,0A.9448.9448,0,0,0,29,4.0378Z" fill="#29d2f5"/><path d="M33,4.0378a.9448.9448,0,0,0-1,1,1,1,0,0,0,2,0A.9448.9448,0,0,0,33,4.0378Z" fill="#5ebbe0"/><path d="M37,4.0378a.9448.9448,0,0,0-1,1,1,1,0,0,0,2,0A.9448.9448,0,0,0,37,4.0378Z" fill="#5ebbe0"/><path d="M41,4.0378a.9448.9448,0,0,0-1,1,1,1,0,0,0,2,0A.9448.9448,0,0,0,41,4.0378Z" fill="#5ebbe0"/><path d="M45,4.0378a.9448.9448,0,0,0-1,1,1,1,0,0,0,2,0A.9448.9448,0,0,0,45,4.0378Z" fill="#5ebbe0"/><path d="M49,4.0378a.9448.9448,0,0,0-1,1,1,1,0,0,0,2,0A.9448.9448,0,0,0,49,4.0378Z" fill="#5ebbe0"/><path d="M53,4.0378a.9448.9448,0,0,0-1,1,1,1,0,0,0,2,0A.9448.9448,0,0,0,53,4.0378Z" fill="#48a4d6"/><path d="M57,4.0378a.9448.9448,0,0,0-1,1,1,1,0,0,0,2,0A.9448.9448,0,0,0,57,4.0378Z" fill="#5ebbe0"/><path d="M61,4.0378a.9448.9448,0,0,0-1,1,1,1,0,1,0,2,0A.9448.9448,0,0,0,61,4.0378Z" fill="#5ebbe0"/><path d="M3,6.0378a.9448.9448,0,0,0-1,1,.9448.9448,0,0,0,1,1,.9448.9448,0,0,0,1-1A.9448.9448,0,0,0,3,6.0378Z" fill="#5ebbe0"/><path d="M7,6.0378a.9448.9448,0,0,0-1,1,.9448.9448,0,0,0,1,1,.9448.9448,0,0,0,1-1A.9448.9448,0,0,0,7,6.0378Z" fill="#5ebbe0"/><path d="M11,6.0378a.9448.9448,0,0,0-1,1,.9448.9448,0,0,0,1,1,.9448.9448,0,0,0,1-1A.9448.9448,0,0,0,11,6.0378Z" fill="#5ebbe0"/><path d="M15,6.0378a.9448.9448,0,0,0-1,1,1,1,0,0,0,2,0A.9448.9448,0,0,0,15,6.0378Z" fill="#3cafee"/><path d="M19,6.0378a.9448.9448,0,0,0-1,1,1,1,0,1,0,2,0A.9448.9448,0,0,0,19,6.0378Z" fill="#5ebbe0"/><path d="M23,6.0378a.9448.9448,0,0,0-1,1,1,1,0,1,0,2,0A.9448.9448,0,0,0,23,6.0378Z" fill="#5ebbe0"/><path d="M27,6.0378a.9448.9448,0,0,0-1,1,1,1,0,1,0,2,0A.9448.9448,0,0,0,27,6.0378Z" fill="#5ebbe0"/><path d="M31,6.0378a.9448.9448,0,0,0-1,1,1,1,0,1,0,2,0A.9448.9448,0,0,0,31,6.0378Z" fill="#5ebbe0"/><path d="M35,6.0378a.9448.9448,0,0,0-1,1,1,1,0,1,0,2,0A.9448.9448,0,0,0,35,6.0378Z" fill="#5ebbe0"/><path d="M39,6.0378a.9448.9448,0,0,0-1,1,1,1,0,0,0,2,0A.9448.9448,0,0,0,39,6.0378Z" fill="#5ebbe0"/><path d="M43,6.0378a.9448.9448,0,0,0-1,1,1,1,0,0,0,2,0A.9448.9448,0,0,0,43,6.0378Z" fill="#5ebbe0"/><path d="M47,6.0378a.9448.9448,0,0,0-1,1,1,1,0,1,0,2,0A.9448.9448,0,0,0,47,6.0378Z" fill="#38a9e6"/><path d="M51,6.0378a.9448.9448,0,0,0-1,1,1,1,0,1,0,2,0A.9448.9448,0,0,0,51,6.0378Z" fill="#5ebbe0"/><path d="M55,6.0378a.9448.9448,0,0,0-1,1,1,1,0,0,0,2,0A.9448.9448,0,0,0,55,6.0378Z" fill="#5ebbe0"/><path d="M59,6.0378a.9448.9448,0,0,0-1,1,1,1,0,0,0,2,0A.9448.9448,0,0,0,59,6.0378Z" fill="#5ebbe0"/><path d="M63,6.0378a.9448.9448,0,0,0-1,1,1,1,0,1,0,2,0A.9448.9448,0,0,0,63,6.0378Z" fill="#5ebbe0"/><path d="M1,8.0378a.9448.9448,0,0,0-1,1,.9448.9448,0,0,0,1,1,.9448.9448,0,0,0,1-1A.9448.9448,0,0,0,1,8.0378Z" fill="#5ebbe0"/><path d="M5.5,8.0378a.9448.9448,0,0,0-1,1,.9448.9448,0,0,0,1,1,.9448.9448,0,0,0,1-1A.9448.9448,0,0,0,5.5,8.0378Z" fill="#3cafee"/><path d="M9,8.0378a.9448.9448,0,0,0-1,1,.9448.9448,0,0,0,1,1,.9448.9448,0,0,0,1-1A.9448.9448,0,0,0,9,8.0378Z" fill="#5ebbe0"/><path d="M13,8.0378a.9448.9448,0,0,0-1,1,1,1,0,0,0,2,0A.9448.9448,0,0,0,13,8.0378Z" fill="#5ebbe0"/><path d="M17,8.0378a.9448.9448,0,0,0-1,1,1,1,0,0,0,2,0A.9448.9448,0,0,0,17,8.0378Z" fill="#5ebbe0"/><path d="M21,8.0378a.9448.9448,0,0,0-1,1,1,1,0,0,0,2,0A.9448.9448,0,0,0,21,8.0378Z" fill="#5ebbe0"/><path d="M25,8.0378a.9448.9448,0,0,0-1,1,1,1,0,1,0,2,0A.9448.9448,0,0,0,25,8.0378Z" fill="#5ebbe0"/><path d="M29,8.0378a.9448.9448,0,0,0-1,1,1,1,0,1,0,2,0A.9448.9448,0,0,0,29,8.0378Z" fill="#5ebbe0"/><path d="M33,8.0378a.9448.9448,0,0,0-1,1,1,1,0,1,0,2,0A.9448.9448,0,0,0,33,8.0378Z" fill="#5ebbe0"/><path d="M37.5,8.0378a.9448.9448,0,0,0-1,1,1,1,0,1,0,2,0A.9448.9448,0,0,0,37.5,8.0378Z" fill="#5ebbe0"/><path d="M41,8.0378a.9448.9448,0,0,0-1,1,1,1,0,1,0,2,0A.9448.9448,0,0,0,41,8.0378Z" fill="#5ebbe0"/><path d="M45,8.0378a.9448.9448,0,0,0-1,1,1,1,0,1,0,2,0A.9448.9448,0,0,0,45,8.0378Z" fill="#5ebbe0"/><path d="M49,8.0378a.9448.9448,0,0,0-1,1,1,1,0,1,0,2,0A.9448.9448,0,0,0,49,8.0378Z" fill="#5ebbe0"/><path d="M53,8.0378a.9448.9448,0,0,0-1,1,1,1,0,1,0,2,0A.9448.9448,0,0,0,53,8.0378Z" fill="#5ebbe0"/><path d="M57,8.0378a.9448.9448,0,0,0-1,1,1,1,0,1,0,2,0A.9448.9448,0,0,0,57,8.0378Z" fill="#5ebbe0"/><path d="M61,8.0378a.9448.9448,0,0,0-1,1,1,1,0,1,0,2,0A.9448.9448,0,0,0,61,8.0378Z" fill="#5ebbe0"/><path d="M3,10.0378a.9448.9448,0,0,0-1,1,.9448.9448,0,0,0,1,1,.9448.9448,0,0,0,1-1A.9448.9448,0,0,0,3,10.0378Z" fill="#5ebbe0"/><path d="M7,10.0378a.9448.9448,0,0,0-1,1,.9448.9448,0,0,0,1,1,.9448.9448,0,0,0,1-1A.9448.9448,0,0,0,7,10.0378Z" fill="#3cafee"/><path d="M11,10.0378a.9448.9448,0,0,0-1,1,.9448.9448,0,0,0,1,1,.9448.9448,0,0,0,1-1A.9448.9448,0,0,0,11,10.0378Z" fill="#5ebbe0"/><path d="M15,10.0378a.9448.9448,0,0,0-1,1,1,1,0,0,0,2,0A.9448.9448,0,0,0,15,10.0378Z" fill="#5ebbe0"/><path d="M19,10.0378a.9448.9448,0,0,0-1,1,1,1,0,0,0,2,0A.9448.9448,0,0,0,19,10.0378Z" fill="#5ebbe0"/><path d="M23,10.0378a.9448.9448,0,0,0-1,1,1,1,0,1,0,2,0A.9448.9448,0,0,0,23,10.0378Z" fill="#5ebbe0"/><path d="M27,10.0378a.9448.9448,0,0,0-1,1,1,1,0,1,0,2,0A.9448.9448,0,0,0,27,10.0378Z" fill="#5ebbe0"/><path d="M31,10.0378a.9448.9448,0,0,0-1,1,1,1,0,1,0,2,0A.9448.9448,0,0,0,31,10.0378Z" fill="#5ebbe0"/><path d="M35,10.0378a.9448.9448,0,0,0-1,1,1,1,0,1,0,2,0A.9448.9448,0,0,0,35,10.0378Z" fill="#5ebbe0"/><path d="M39,10.0378a.9448.9448,0,0,0-1,1,1,1,0,1,0,2,0A.9448.9448,0,0,0,39,10.0378Z" fill="#60b4e3"/><path d="M43,10.0378a.9448.9448,0,0,0-1,1,1,1,0,1,0,2,0A.9448.9448,0,0,0,43,10.0378Z" fill="#5ebbe0"/><path d="M47,10.0378a.9448.9448,0,0,0-1,1,1,1,0,1,0,2,0A.9448.9448,0,0,0,47,10.0378Z" fill="#5ebbe0"/><path d="M51,10.0378a.9448.9448,0,0,0-1,1,1,1,0,1,0,2,0A.9448.9448,0,0,0,51,10.0378Z" fill="#5ebbe0"/><path d="M55,10.0378a.9448.9448,0,0,0-1,1,1,1,0,1,0,2,0A.9448.9448,0,0,0,55,10.0378Z" fill="#5ebbe0"/><path d="M59,10.0378a.9448.9448,0,0,0-1,1,1,1,0,1,0,2,0A.9448.9448,0,0,0,59,10.0378Z" fill="#5ebbe0"/><path d="M63,10.0378a.9448.9448,0,0,0-1,1,1,1,0,1,0,2,0A.9448.9448,0,0,0,63,10.0378Z" fill="#5ebbe0"/><path d="M1,12.0378a1,1,0,0,0,0,2,1,1,0,0,0,0-2Z" fill="#5ebbe0"/><path d="M5,12.0378a1,1,0,0,0,0,2,1,1,0,0,0,0-2Z" fill="#29d2f5"/><path d="M9,12.0378a1,1,0,0,0,0,2,1,1,0,0,0,0-2Z" fill="#5ebbe0"/><path d="M13,12.0378a1,1,0,1,0,1,1A.9448.9448,0,0,0,13,12.0378Z" fill="#5ebbe0"/><path d="M17,12.0378a1,1,0,1,0,1,1A.9448.9448,0,0,0,17,12.0378Z" fill="#5ebbe0"/><path d="M21,12.0378a1,1,0,1,0,1,1A.9448.9448,0,0,0,21,12.0378Z" fill="#5ebbe0"/><path d="M25,12.0378a1,1,0,1,0,1,1A.9448.9448,0,0,0,25,12.0378Z" fill="#5ebbe0"/><path d="M29,12.0378a1,1,0,1,0,1,1A.9448.9448,0,0,0,29,12.0378Z" fill="#5ebbe0"/><path d="M33,12.0378a1,1,0,1,0,1,1A.9448.9448,0,0,0,33,12.0378Z" fill="#5ebbe0"/><path d="M37,12.0378a1,1,0,1,0,1,1A.9448.9448,0,0,0,37,12.0378Z" fill="#5ebbe0"/><path d="M41,12.0378a1,1,0,1,0,1,1A.9448.9448,0,0,0,41,12.0378Z" fill="#5ebbe0"/><path d="M45,12.0378a1,1,0,1,0,1,1A.9448.9448,0,0,0,45,12.0378Z" fill="#5ebbe0"/><path d="M49,12.0378a1,1,0,1,0,1,1A.9448.9448,0,0,0,49,12.0378Z" fill="#5ebbe0"/><path d="M53,12.0378a1,1,0,1,0,1,1A.9448.9448,0,0,0,53,12.0378Z" fill="#5ebbe0"/><path d="M57,12.0378a1,1,0,1,0,1,1A.9448.9448,0,0,0,57,12.0378Z" fill="#5ebbe0"/><path d="M61,12.0378a1,1,0,1,0,1,1A.9448.9448,0,0,0,61,12.0378Z" fill="#5ebbe0"/><path d="M3,14.0378a1,1,0,0,0,0,2,1,1,0,0,0,0-2Z" fill="#5ebbe0"/><path d="M7,14.0378a1,1,0,0,0,0,2,1,1,0,0,0,0-2Z" fill="#5ebbe0"/><path d="M11,14.0378a1,1,0,0,0,0,2,1,1,0,0,0,0-2Z" fill="#5ebbe0"/><path d="M15,14.0378a1,1,0,1,0,1,1A.9448.9448,0,0,0,15,14.0378Z" fill="#5ebbe0"/><path d="M19,14.0378a1,1,0,1,0,1,1A.9448.9448,0,0,0,19,14.0378Z" fill="#5ebbe0"/><path d="M23,14.0378a1,1,0,1,0,1,1A.9448.9448,0,0,0,23,14.0378Z" fill="#38a9e6"/><path d="M27,14.0378a1,1,0,1,0,1,1A.9448.9448,0,0,0,27,14.0378Z" fill="#5ebbe0"/><path d="M31,14.0378a1,1,0,1,0,1,1A.9448.9448,0,0,0,31,14.0378Z" fill="#5ebbe0"/><path d="M35,14.0378a1,1,0,1,0,1,1A.9448.9448,0,0,0,35,14.0378Z" fill="#61a3e9"/><path d="M39,14.0378a1,1,0,1,0,1,1A.9448.9448,0,0,0,39,14.0378Z" fill="#5ebbe0"/><path d="M43,14.0378a1,1,0,1,0,1,1A.9448.9448,0,0,0,43,14.0378Z" fill="#5ebbe0"/><path d="M47,14.0378a1,1,0,1,0,1,1A.9448.9448,0,0,0,47,14.0378Z" fill="#5ebbe0"/><path d="M51,14.0378a1,1,0,1,0,1,1A.9448.9448,0,0,0,51,14.0378Z" fill="#5ebbe0"/><path d="M55,14.0378a1,1,0,1,0,1,1A.9448.9448,0,0,0,55,14.0378Z" fill="#5ebbe0"/><path d="M59,14.0378a1,1,0,1,0,1,1A.9448.9448,0,0,0,59,14.0378Z" fill="#48a4d6"/><path d="M63,14.0378a1,1,0,1,0,1,1A.9448.9448,0,0,0,63,14.0378Z" fill="#5ebbe0"/><path d="M17,15.5378a1,1,0,1,0,1,1A.9448.9448,0,0,0,17,15.5378Z" fill="#5ebbe0"/><path d="M49,15.5378a1,1,0,1,0,1,1A.9448.9448,0,0,0,49,15.5378Z" fill="#5ebbe0"/><path d="M1,16.0378a1,1,0,0,0,0,2,1,1,0,0,0,0-2Z" fill="#5ebbe0"/><path d="M5,16.0378a1,1,0,0,0,0,2,1,1,0,0,0,0-2Z" fill="#5ebbe0"/><path d="M9,16.0378a1,1,0,0,0,0,2,1,1,0,0,0,0-2Z" fill="#5ebbe0"/><path d="M13,16.0378a1,1,0,1,0,1,1A.9448.9448,0,0,0,13,16.0378Z" fill="#5ebbe0"/><path d="M21,16.0378a1,1,0,1,0,1,1A.9448.9448,0,0,0,21,16.0378Z" fill="#5ebbe0"/><path d="M25,16.0378a1,1,0,1,0,1,1A.9448.9448,0,0,0,25,16.0378Z" fill="#5ebbe0"/><path d="M29,16.0378a1,1,0,1,0,1,1A.9448.9448,0,0,0,29,16.0378Z" fill="#60b4e3"/><path d="M33,16.0378a1,1,0,1,0,1,1A.9448.9448,0,0,0,33,16.0378Z" fill="#5ebbe0"/><path d="M37,16.0378a1,1,0,1,0,1,1A.9448.9448,0,0,0,37,16.0378Z" fill="#5ebbe0"/><path d="M41,16.0378a1,1,0,1,0,1,1A.9448.9448,0,0,0,41,16.0378Z" fill="#5ebbe0"/><path d="M45,16.0378a1,1,0,1,0,1,1A.9448.9448,0,0,0,45,16.0378Z" fill="#5ebbe0"/><path d="M53,16.0378a1,1,0,1,0,1,1A.9448.9448,0,0,0,53,16.0378Z" fill="#5ebbe0"/><path d="M57,16.0378a1,1,0,1,0,1,1A.9448.9448,0,0,0,57,16.0378Z" fill="#5ebbe0"/><path d="M61,16.0378a1,1,0,1,0,1,1A.9448.9448,0,0,0,61,16.0378Z" fill="#5ebbe0"/><path d="M3,18.0378a1,1,0,0,0,0,2,1,1,0,0,0,0-2Z" fill="#5ebbe0"/><path d="M7,18.0378a1,1,0,0,0,0,2,1,1,0,0,0,0-2Z" fill="#5ebbe0"/><path d="M11,18.0378a1,1,0,0,0,0,2,1,1,0,0,0,0-2Z" fill="#297cf5" opacity="0.862" style="isolation:isolate"/><path d="M15,18.0378a1,1,0,1,0,1,1A.9448.9448,0,0,0,15,18.0378Z" fill="#5ebbe0"/><path d="M19,18.0378a1,1,0,1,0,1,1A.9448.9448,0,0,0,19,18.0378Z" fill="#61a3e9"/><path d="M23,18.0378a1,1,0,1,0,1,1A.9448.9448,0,0,0,23,18.0378Z" fill="#5ebbe0"/><path d="M27,18.0378a1,1,0,1,0,1,1A.9448.9448,0,0,0,27,18.0378Z" fill="#29d2f5"/><path d="M31,18.0378a1,1,0,1,0,1,1A.9448.9448,0,0,0,31,18.0378Z" fill="#5ebbe0"/><path d="M35,18.0378a1,1,0,1,0,1,1A.9448.9448,0,0,0,35,18.0378Z" fill="#5ebbe0"/><path d="M39,18.0378a1,1,0,1,0,1,1A.9448.9448,0,0,0,39,18.0378Z" fill="#5ebbe0"/><path d="M43,18.0378a1,1,0,1,0,1,1A.9448.9448,0,0,0,43,18.0378Z" fill="#5ebbe0"/><path d="M47,18.0378a1,1,0,1,0,1,1A.9448.9448,0,0,0,47,18.0378Z" fill="#5ebbe0"/><path d="M51,18.0378a1,1,0,1,0,1,1A.9448.9448,0,0,0,51,18.0378Z" fill="#5ebbe0"/><path d="M55,18.0378a1,1,0,1,0,1,1A.9448.9448,0,0,0,55,18.0378Z" fill="#5ebbe0"/><path d="M59,18.0378a1,1,0,1,0,1,1A.9448.9448,0,0,0,59,18.0378Z" fill="#5ebbe0"/><path d="M63,18.0378a1,1,0,1,0,1,1A.9448.9448,0,0,0,63,18.0378Z" fill="#5ebbe0"/><path d="M1,20.0378a1,1,0,0,0,0,2,1,1,0,0,0,0-2Z" fill="#5ebbe0"/><path d="M5,20.0378a1,1,0,0,0,0,2,1,1,0,0,0,0-2Z" fill="#5ebbe0"/><path d="M9,20.0378a1,1,0,0,0,0,2,1,1,0,0,0,0-2Z" fill="#5ebbe0"/><path d="M13,20.0378a1,1,0,1,0,1,1A.9448.9448,0,0,0,13,20.0378Z" fill="#5ebbe0"/><path d="M17,20.0378a1,1,0,1,0,1,1A.9448.9448,0,0,0,17,20.0378Z" fill="#5ebbe0"/><path d="M21,20.0378a1,1,0,1,0,1,1A.9448.9448,0,0,0,21,20.0378Z" fill="#5ebbe0"/><path d="M25,20.0378a1,1,0,1,0,1,1A.9448.9448,0,0,0,25,20.0378Z" fill="#5ebbe0"/><path d="M29,20.0378a1,1,0,1,0,1,1A.9448.9448,0,0,0,29,20.0378Z" fill="#5ebbe0"/><path d="M33,20.0378a1,1,0,1,0,1,1A.9448.9448,0,0,0,33,20.0378Z" fill="#5ebbe0"/><path d="M37,20.0378a1,1,0,1,0,1,1A.9448.9448,0,0,0,37,20.0378Z" fill="#5ebbe0"/><path d="M41,20.0378a1,1,0,1,0,1,1A.9448.9448,0,0,0,41,20.0378Z" fill="#5ebbe0"/><path d="M45,20.0378a1,1,0,1,0,1,1A.9448.9448,0,0,0,45,20.0378Z" fill="#5ebbe0"/><path d="M49,20.0378a1,1,0,1,0,1,1A.9448.9448,0,0,0,49,20.0378Z" fill="#5ebbe0"/><path d="M53,20.0378a1,1,0,1,0,1,1A.9448.9448,0,0,0,53,20.0378Z" fill="#5ebbe0"/><path d="M57,20.0378a1,1,0,1,0,1,1A.9448.9448,0,0,0,57,20.0378Z" fill="#5ebbe0"/><path d="M61,20.0378a1,1,0,1,0,1,1A.9448.9448,0,0,0,61,20.0378Z" fill="#5ebbe0"/><path d="M3,22.0378a1,1,0,0,0,0,2,1,1,0,0,0,0-2Z" fill="#5ebbe0"/><path d="M7,22.0378a1,1,0,0,0,0,2,1,1,0,0,0,0-2Z" fill="#5ebbe0"/><path d="M11,22.0378a1,1,0,0,0,0,2,1,1,0,1,0,0-2Z" fill="#5ebbe0"/><path d="M15,22.0378a1,1,0,1,0,1,1A.9448.9448,0,0,0,15,22.0378Z" fill="#5ebbe0"/><path d="M19,22.0378a1,1,0,1,0,1,1A.9448.9448,0,0,0,19,22.0378Z" fill="#5ebbe0"/><path d="M23,22.0378a1,1,0,1,0,1,1A.9448.9448,0,0,0,23,22.0378Z" fill="#5ebbe0"/><path d="M27,22.0378a1,1,0,1,0,1,1A.9448.9448,0,0,0,27,22.0378Z" fill="#5ebbe0"/><path d="M31,22.0378a1,1,0,1,0,1,1A.9448.9448,0,0,0,31,22.0378Z" fill="#5ebbe0"/><path d="M35,22.0378a1,1,0,1,0,1,1A.9448.9448,0,0,0,35,22.0378Z" fill="#5ebbe0"/><path d="M39,22.0378a1,1,0,1,0,1,1A.9448.9448,0,0,0,39,22.0378Z" fill="#5ebbe0"/><path d="M43,22.0378a1,1,0,1,0,1,1A.9448.9448,0,0,0,43,22.0378Z" fill="#5ebbe0"/><path d="M47,22.0378a1,1,0,1,0,1,1A.9448.9448,0,0,0,47,22.0378Z" fill="#5ebbe0"/><path d="M51,22.0378a1,1,0,1,0,1,1A.9448.9448,0,0,0,51,22.0378Z" fill="#5ebbe0"/><path d="M55,22.0378a1,1,0,1,0,1,1A.9448.9448,0,0,0,55,22.0378Z" fill="#5ebbe0"/><path d="M59,22.0378a1,1,0,1,0,1,1A.9448.9448,0,0,0,59,22.0378Z" fill="#5ebbe0"/><path d="M63,22.0378a1,1,0,1,0,1,1A.9448.9448,0,0,0,63,22.0378Z" fill="#5ebbe0"/><path d="M13,23.5378a1,1,0,1,0,1,1A.9448.9448,0,0,0,13,23.5378Z" fill="#5ebbe0"/><path d="M45,23.5378a1,1,0,1,0,1,1A.9448.9448,0,0,0,45,23.5378Z" fill="#5ebbe0"/><path d="M1,24.0378a1,1,0,0,0,0,2,1,1,0,0,0,0-2Z" fill="#5ebbe0"/><path d="M5,24.0378a1,1,0,0,0,0,2,1,1,0,0,0,0-2Z" fill="#5ebbe0"/><path d="M9,24.0378a1,1,0,0,0,0,2,1,1,0,1,0,0-2Z" fill="#5ebbe0"/><path d="M17,24.0378a1,1,0,1,0,1,1A.9448.9448,0,0,0,17,24.0378Z" fill="#5ebbe0"/><path d="M21,24.0378a1,1,0,1,0,1,1A.9448.9448,0,0,0,21,24.0378Z" fill="#5ebbe0"/><path d="M25,24.0378a1,1,0,1,0,1,1A.9448.9448,0,0,0,25,24.0378Z" fill="#5ebbe0"/><path d="M29,24.0378a1,1,0,1,0,1,1A.9448.9448,0,0,0,29,24.0378Z" fill="#5ebbe0"/><path d="M33,24.0378a1,1,0,1,0,1,1A.9448.9448,0,0,0,33,24.0378Z" fill="#61a3e9" opacity="0.862" style="isolation:isolate"/><path d="M37,24.0378a1,1,0,1,0,1,1A.9448.9448,0,0,0,37,24.0378Z" fill="#5ebbe0"/><path d="M41,24.0378a1,1,0,1,0,1,1A.9448.9448,0,0,0,41,24.0378Z" fill="#5ebbe0"/><path d="M49,24.0378a1,1,0,1,0,1,1A.9448.9448,0,0,0,49,24.0378Z" fill="#5ebbe0"/><path d="M53,24.0378a1,1,0,1,0,1,1A.9448.9448,0,0,0,53,24.0378Z" fill="#5ebbe0"/><path d="M57,24.0378a1,1,0,1,0,1,1A.9448.9448,0,0,0,57,24.0378Z" fill="#60b4e3"/><path d="M61,24.0378a1,1,0,1,0,1,1A.9448.9448,0,0,0,61,24.0378Z" fill="#5ebbe0"/><path d="M3,26.0378a1,1,0,0,0,0,2,1,1,0,0,0,0-2Z" fill="#5ebbe0"/><path d="M7,26.0378a1,1,0,0,0,0,2,1,1,0,1,0,0-2Z" fill="#5ebbe0"/><path d="M11,26.0378a1,1,0,0,0,0,2,1,1,0,1,0,0-2Z" fill="#5ebbe0"/><path d="M15,26.0378a1,1,0,1,0,1,1A.9448.9448,0,0,0,15,26.0378Z" fill="#5ebbe0"/><path d="M19,26.0378a1,1,0,1,0,1,1A.9448.9448,0,0,0,19,26.0378Z" fill="#5ebbe0"/><path d="M23,26.0378a1,1,0,1,0,1,1A.9448.9448,0,0,0,23,26.0378Z" fill="#5ebbe0"/><path d="M27,26.0378a1,1,0,1,0,1,1A.9448.9448,0,0,0,27,26.0378Z" fill="#5ebbe0"/><path d="M31,26.0378a1,1,0,1,0,1,1A.9448.9448,0,0,0,31,26.0378Z" fill="#5ebbe0"/><path d="M35,26.0378a1,1,0,1,0,1,1A.9448.9448,0,0,0,35,26.0378Z" fill="#5ebbe0"/><path d="M39,26.0378a1,1,0,1,0,1,1A.9448.9448,0,0,0,39,26.0378Z" fill="#5ebbe0"/><path d="M43,26.0378a1,1,0,1,0,1,1A.9448.9448,0,0,0,43,26.0378Z" fill="#2d79f1" fill-opacity="0.7112"/><path d="M47,26.0378a1,1,0,1,0,1,1A.9448.9448,0,0,0,47,26.0378Z" fill="#5ebbe0"/><path d="M51,26.0378a1,1,0,1,0,1,1A.9448.9448,0,0,0,51,26.0378Z" fill="#5ebbe0"/><path d="M55,26.0378a1,1,0,1,0,1,1A.9448.9448,0,0,0,55,26.0378Z" fill="#5ebbe0"/><path d="M59,26.0378a1,1,0,1,0,1,1A.9448.9448,0,0,0,59,26.0378Z" fill="#5ebbe0"/><path d="M63,26.0378a1,1,0,1,0,1,1A.9448.9448,0,0,0,63,26.0378Z" fill="#5ebbe0"/><path d="M1,28.0378a1,1,0,0,0,0,2,1,1,0,0,0,0-2Z" fill="#5ebbe0"/><path d="M5,28.0378a1,1,0,0,0,0,2,1,1,0,1,0,0-2Z" fill="#5ebbe0"/><path d="M9,28.0378a1,1,0,0,0,0,2,1,1,0,1,0,0-2Z" fill="#5ebbe0"/><path d="M13,28.0378a1,1,0,1,0,1,1A.9448.9448,0,0,0,13,28.0378Z" fill="#5ebbe0"/><path d="M17,28.0378a1,1,0,1,0,1,1A.9448.9448,0,0,0,17,28.0378Z" fill="#5ebbe0"/><path d="M21,28.0378a1,1,0,1,0,1,1A.9448.9448,0,0,0,21,28.0378Z" fill="#5ebbe0"/><path d="M25,28.0378a1,1,0,1,0,1,1A.9448.9448,0,0,0,25,28.0378Z" fill="#5ebbe0"/><path d="M29,28.0378a1,1,0,1,0,1,1A.9448.9448,0,0,0,29,28.0378Z" fill="#5ebbe0"/><path d="M33,28.0378a1,1,0,1,0,1,1A.9448.9448,0,0,0,33,28.0378Z" fill="#5ebbe0"/><path d="M37,28.0378a1,1,0,1,0,1,1A.9448.9448,0,0,0,37,28.0378Z" fill="#5ebbe0"/><path d="M41,28.0378a1,1,0,1,0,1,1A.9448.9448,0,0,0,41,28.0378Z" fill="#5ebbe0"/><path d="M45,28.0378a1,1,0,1,0,1,1A.9448.9448,0,0,0,45,28.0378Z" fill="#5ebbe0"/><path d="M49,28.0378a1,1,0,1,0,1,1A.9448.9448,0,0,0,49,28.0378Z" fill="#5ebbe0"/><path d="M53,28.0378a1,1,0,1,0,1,1A.9448.9448,0,0,0,53,28.0378Z" fill="#5ebbe0"/><path d="M57,28.0378a1,1,0,1,0,1,1A.9448.9448,0,0,0,57,28.0378Z" fill="#5ebbe0"/><path d="M61,28.0378a1,1,0,1,0,1,1A.9448.9448,0,0,0,61,28.0378Z" fill="#5ebbe0"/><path d="M3,30.0378a1,1,0,0,0,0,2,1,1,0,1,0,0-2Z" fill="#5ebbe0"/><path d="M7,30.0378a1,1,0,0,0,0,2,1,1,0,1,0,0-2Z" fill="#5ebbe0"/><path d="M11,30.0378a1,1,0,0,0,0,2,1,1,0,1,0,0-2Z" fill="#5ebbe0"/><path d="M15,30.0378a1,1,0,1,0,1,1A.9448.9448,0,0,0,15,30.0378Z" fill="#5ebbe0"/><path d="M19,30.0378a1,1,0,1,0,1,1A.9448.9448,0,0,0,19,30.0378Z" fill="#5ebbe0"/><path d="M23,30.0378a1,1,0,1,0,1,1A.9448.9448,0,0,0,23,30.0378Z" fill="#5ebbe0"/><path d="M27,30.0378a1,1,0,1,0,1,1A.9448.9448,0,0,0,27,30.0378Z" fill="#5ebbe0"/><path d="M31,30.0378a1,1,0,1,0,1,1A.9448.9448,0,0,0,31,30.0378Z" fill="#5ebbe0"/><path d="M35,30.0378a1,1,0,1,0,1,1A.9448.9448,0,0,0,35,30.0378Z" fill="#5ebbe0"/><path d="M39,30.0378a1,1,0,1,0,1,1A.9448.9448,0,0,0,39,30.0378Z" fill="#60b4e3"/><path d="M43,30.0378a1,1,0,1,0,1,1A.9448.9448,0,0,0,43,30.0378Z" fill="#61a3e9"/><path d="M47,30.0378a1,1,0,1,0,1,1A.9448.9448,0,0,0,47,30.0378Z" fill="#5ebbe0"/><path d="M51,30.0378a1,1,0,1,0,1,1A.9448.9448,0,0,0,51,30.0378Z" fill="#5ebbe0"/><path d="M55,30.0378a1,1,0,1,0,1,1A.9448.9448,0,0,0,55,30.0378Z" fill="#5ebbe0"/><path d="M59,30.0378a1,1,0,1,0,1,1A.9448.9448,0,0,0,59,30.0378Z" fill="#5ebbe0"/><path d="M63,30.0378a1,1,0,1,0,1,1A.9448.9448,0,0,0,63,30.0378Z" fill="#5ebbe0"/><path d="M1,32.0378a1,1,0,0,0,0,2,1,1,0,0,0,0-2Z" fill="#5ebbe0"/><path d="M5,32.0378a1,1,0,0,0,0,2,1,1,0,0,0,0-2Z" fill="#5ebbe0"/><path d="M9,32.0378a1,1,0,0,0,0,2,1,1,0,0,0,0-2Z" fill="#5ebbe0"/><path d="M13,32.0378a1,1,0,1,0,1,1A.9448.9448,0,0,0,13,32.0378Z" fill="#5ebbe0"/><path d="M17,32.0378a1,1,0,1,0,1,1A.9448.9448,0,0,0,17,32.0378Z" fill="#5ebbe0"/><path d="M21,32.0378a1,1,0,1,0,1,1A.9448.9448,0,0,0,21,32.0378Z" fill="#5ebbe0"/><path d="M25,32.0378a1,1,0,1,0,1,1A.9448.9448,0,0,0,25,32.0378Z" fill="#38a9e6"/><path d="M29,32.0378a1,1,0,1,0,1,1A.9448.9448,0,0,0,29,32.0378Z" fill="#5ebbe0"/><path d="M33,32.0378a1,1,0,1,0,1,1A.9448.9448,0,0,0,33,32.0378Z" fill="#5ebbe0"/><path d="M37,32.0378a1,1,0,1,0,1,1A.9448.9448,0,0,0,37,32.0378Z" fill="#5ebbe0"/><path d="M41,32.0378a1,1,0,1,0,1,1A.9448.9448,0,0,0,41,32.0378Z" fill="#5ebbe0"/><path d="M45,32.0378a1,1,0,1,0,1,1A.9448.9448,0,0,0,45,32.0378Z" fill="#5ebbe0"/><path d="M49,32.0378a1,1,0,1,0,1,1A.9448.9448,0,0,0,49,32.0378Z" fill="#5ebbe0"/><path d="M53,32.0378a1,1,0,1,0,1,1A.9448.9448,0,0,0,53,32.0378Z" fill="#5ebbe0"/><path d="M57,32.0378a1,1,0,1,0,1,1A.9448.9448,0,0,0,57,32.0378Z" fill="#5ebbe0"/><path d="M61,32.0378a1,1,0,1,0,1,1A.9448.9448,0,0,0,61,32.0378Z" fill="#5ebbe0"/><path d="M3,34.0378a1,1,0,0,0,0,2,1,1,0,0,0,0-2Z" fill="#5ebbe0"/><path d="M7,34.0378a1,1,0,0,0,0,2,1,1,0,0,0,0-2Z" fill="#3cafee"/><path d="M11,34.0378a1,1,0,0,0,0,2,1,1,0,0,0,0-2Z" fill="#5ebbe0"/><path d="M15,34.0378a1,1,0,1,0,1,1A.9448.9448,0,0,0,15,34.0378Z" fill="#5ebbe0"/><path d="M19,34.0378a1,1,0,1,0,1,1A.9448.9448,0,0,0,19,34.0378Z" fill="#61a3e9"/><path d="M23,34.0378a1,1,0,1,0,1,1A.9448.9448,0,0,0,23,34.0378Z" fill="#5ebbe0"/><path d="M27.5,34.0378a1,1,0,1,0,1,1A.9448.9448,0,0,0,27.5,34.0378Z" fill="#5ebbe0"/><path d="M31,34.0378a1,1,0,1,0,1,1A.9448.9448,0,0,0,31,34.0378Z" fill="#5ebbe0"/><path d="M35,34.0378a1,1,0,1,0,1,1A.9448.9448,0,0,0,35,34.0378Z" fill="#5ebbe0"/><path d="M39,34.0378a1,1,0,1,0,1,1A.9448.9448,0,0,0,39,34.0378Z" fill="#5ebbe0"/><path d="M43,34.0378a1,1,0,1,0,1,1A.9448.9448,0,0,0,43,34.0378Z" fill="#5ebbe0"/><path d="M47,34.0378a1,1,0,1,0,1,1A.9448.9448,0,0,0,47,34.0378Z" fill="#5ebbe0"/><path d="M51,34.0378a1,1,0,1,0,1,1A.9448.9448,0,0,0,51,34.0378Z" fill="#5ebbe0"/><path d="M55,34.0378a1,1,0,1,0,1,1A.9448.9448,0,0,0,55,34.0378Z" fill="#5ebbe0"/><path d="M59.5,34.0378a1,1,0,1,0,1,1A.9448.9448,0,0,0,59.5,34.0378Z" fill="#5ebbe0"/><path d="M63,34.0378a1,1,0,1,0,1,1A.9448.9448,0,0,0,63,34.0378Z" fill="#5ebbe0"/><path d="M1,36.0378a1,1,0,0,0,0,2,1,1,0,0,0,0-2Z" fill="#5ebbe0"/><path d="M5,36.0378a1,1,0,0,0,0,2,1,1,0,0,0,0-2Z" fill="#5ebbe0"/><path d="M9,36.0378a1,1,0,0,0,0,2,1,1,0,0,0,0-2Z" fill="#3cafee"/><path d="M13,36.0378a1,1,0,1,0,1,1A.9448.9448,0,0,0,13,36.0378Z" fill="#5ebbe0"/><path d="M17,36.0378a1,1,0,1,0,1,1A.9448.9448,0,0,0,17,36.0378Z" fill="#5ebbe0"/><path d="M21,36.0378a1,1,0,1,0,1,1A.9448.9448,0,0,0,21,36.0378Z" fill="#5ebbe0"/><path d="M25,36.0378a1,1,0,1,0,1,1A.9448.9448,0,0,0,25,36.0378Z" fill="#5ebbe0"/><path d="M29,36.0378a1,1,0,1,0,1,1A.9448.9448,0,0,0,29,36.0378Z" fill="#5ebbe0"/><path d="M33,36.0378a1,1,0,1,0,1,1A.9448.9448,0,0,0,33,36.0378Z" fill="#5ebbe0"/><path d="M37,36.0378a1,1,0,1,0,1,1A.9448.9448,0,0,0,37,36.0378Z" fill="#5ebbe0"/><path d="M41,36.0378a1,1,0,1,0,1,1A.9448.9448,0,0,0,41,36.0378Z" fill="#5ebbe0"/><path d="M45,36.0378a1,1,0,1,0,1,1A.9448.9448,0,0,0,45,36.0378Z" fill="#5ebbe0"/><path d="M49,36.0378a1,1,0,1,0,1,1A.9448.9448,0,0,0,49,36.0378Z" fill="#5ebbe0"/><path d="M53,36.0378a1,1,0,1,0,1,1A.9448.9448,0,0,0,53,36.0378Z" fill="#5ebbe0"/><path d="M57,36.0378a1,1,0,1,0,1,1A.9448.9448,0,0,0,57,36.0378Z" fill="#5ebbe0"/><path d="M61,36.0378a1,1,0,1,0,1,1A.9448.9448,0,0,0,61,36.0378Z" fill="#5ebbe0"/><path d="M3,38.0378a1,1,0,0,0,0,2,1,1,0,0,0,0-2Z" fill="#5ebbe0"/><path d="M7,38.0378a1,1,0,0,0,0,2,1,1,0,0,0,0-2Z" fill="#5ebbe0"/><path d="M11,38.0378a1,1,0,0,0,0,2,1,1,0,0,0,0-2Z" fill="#5ebbe0"/><path d="M15,38.0378a1,1,0,1,0,1,1A.9448.9448,0,0,0,15,38.0378Z" fill="#5ebbe0"/><path d="M19,38.0378a1,1,0,1,0,1,1A.9448.9448,0,0,0,19,38.0378Z" fill="#5ebbe0"/><path d="M23,38.0378a1,1,0,1,0,1,1A.9448.9448,0,0,0,23,38.0378Z" fill="#5ebbe0"/><path d="M27,38.0378a1,1,0,1,0,1,1A.9448.9448,0,0,0,27,38.0378Z" fill="#5ebbe0"/><path d="M31,38.0378a1,1,0,1,0,1,1A.9448.9448,0,0,0,31,38.0378Z" fill="#5ebbe0"/><path d="M35,38.0378a1,1,0,1,0,1,1A.9448.9448,0,0,0,35,38.0378Z" fill="#5ebbe0"/><path d="M39,38.0378a1,1,0,1,0,1,1A.9448.9448,0,0,0,39,38.0378Z" fill="#5ebbe0"/><path d="M43,38.0378a1,1,0,1,0,1,1A.9448.9448,0,0,0,43,38.0378Z" fill="#5ebbe0"/><path d="M47,38.0378a1,1,0,1,0,1,1A.9448.9448,0,0,0,47,38.0378Z" fill="#5ebbe0"/><path d="M51,38.0378a1,1,0,1,0,1,1A.9448.9448,0,0,0,51,38.0378Z" fill="#5ebbe0"/><path d="M55,38.0378a1,1,0,1,0,1,1A.9448.9448,0,0,0,55,38.0378Z" fill="#5ebbe0"/><path d="M59,38.0378a1,1,0,1,0,1,1A.9448.9448,0,0,0,59,38.0378Z" fill="#5ebbe0"/><path d="M63,38.0378a1,1,0,1,0,1,1A.9448.9448,0,0,0,63,38.0378Z" fill="#5ebbe0"/><path d="M1,40.0378a1,1,0,0,0,0,2,1,1,0,0,0,0-2Z" fill="#5ebbe0"/><path d="M5.5,40.0378a1,1,0,0,0,0,2,1,1,0,0,0,0-2Z" fill="#5ebbe0"/><path d="M9,40.0378a1,1,0,0,0,0,2,1,1,0,0,0,0-2Z" fill="#5ebbe0"/><path d="M13,40.0378a1,1,0,1,0,1,1A.9448.9448,0,0,0,13,40.0378Z" fill="#5ebbe0"/><path d="M17,40.0378a1,1,0,1,0,1,1A.9448.9448,0,0,0,17,40.0378Z" fill="#5ebbe0"/><path d="M21,40.0378a1,1,0,1,0,1,1A.9448.9448,0,0,0,21,40.0378Z" fill="#5ebbe0"/><path d="M25,40.0378a1,1,0,1,0,1,1A.9448.9448,0,0,0,25,40.0378Z" fill="#5ebbe0"/><path d="M29,40.0378a1,1,0,1,0,1,1A.9448.9448,0,0,0,29,40.0378Z" fill="#5ebbe0"/><path d="M33,40.0378a1,1,0,1,0,1,1A.9448.9448,0,0,0,33,40.0378Z" fill="#2d79f1" fill-opacity="0.7112"/><path d="M37.5,40.0378a1,1,0,1,0,1,1A.9448.9448,0,0,0,37.5,40.0378Z" fill="#5ebbe0"/><path d="M41,40.0378a1,1,0,1,0,1,1A.9448.9448,0,0,0,41,40.0378Z" fill="#5ebbe0"/><path d="M45,40.0378a1,1,0,1,0,1,1A.9448.9448,0,0,0,45,40.0378Z" fill="#5ebbe0"/><path d="M49,40.0378a1,1,0,1,0,1,1A.9448.9448,0,0,0,49,40.0378Z" fill="#5ebbe0"/><path d="M53,40.0378a1,1,0,1,0,1,1A.9448.9448,0,0,0,53,40.0378Z" fill="#5ebbe0"/><path d="M57,40.0378a1,1,0,1,0,1,1A.9448.9448,0,0,0,57,40.0378Z" fill="#5ebbe0"/><path d="M61,40.0378a1,1,0,1,0,1,1A.9448.9448,0,0,0,61,40.0378Z" fill="#5ebbe0"/><path d="M3,42.0378a1,1,0,0,0,0,2,1,1,0,0,0,0-2Z" fill="#5ebbe0"/><path d="M7,42.0378a1,1,0,0,0,0,2,1,1,0,0,0,0-2Z" fill="#5ebbe0"/><path d="M11,42.0378a1,1,0,0,0,0,2,1,1,0,0,0,0-2Z" fill="#5ebbe0"/><path d="M15,42.0378a1,1,0,1,0,1,1A.9448.9448,0,0,0,15,42.0378Z" fill="#5ebbe0"/><path d="M19,42.0378a1,1,0,1,0,1,1A.9448.9448,0,0,0,19,42.0378Z" fill="#5ebbe0"/><path d="M23,42.0378a1,1,0,1,0,1,1A.9448.9448,0,0,0,23,42.0378Z" fill="#5ebbe0"/><path d="M27,42.0378a1,1,0,1,0,1,1A.9448.9448,0,0,0,27,42.0378Z" fill="#5ebbe0"/><path d="M31,42.0378a1,1,0,1,0,1,1A.9448.9448,0,0,0,31,42.0378Z" fill="#5ebbe0"/><path d="M35,42.0378a1,1,0,1,0,1,1A.9448.9448,0,0,0,35,42.0378Z" fill="#5ebbe0"/><path d="M39,42.0378a1,1,0,1,0,1,1A.9448.9448,0,0,0,39,42.0378Z" fill="#5ebbe0"/><path d="M43,42.0378a1,1,0,1,0,1,1A.9448.9448,0,0,0,43,42.0378Z" fill="#5ebbe0"/><path d="M47,42.0378a1,1,0,1,0,1,1A.9448.9448,0,0,0,47,42.0378Z" fill="#5ebbe0"/><path d="M51,42.0378a1,1,0,1,0,1,1A.9448.9448,0,0,0,51,42.0378Z" fill="#5ebbe0"/><path d="M55,42.0378a1,1,0,1,0,1,1A.9448.9448,0,0,0,55,42.0378Z" fill="#48a4d6"/><path d="M59,42.0378a1,1,0,1,0,1,1A.9448.9448,0,0,0,59,42.0378Z" fill="#5ebbe0"/><path d="M63,42.0378a1,1,0,1,0,1,1A.9448.9448,0,0,0,63,42.0378Z" fill="#5ebbe0"/><path d="M1,44.0378a1,1,0,0,0,0,2,1,1,0,0,0,0-2Z" fill="#5ebbe0"/><path d="M5,44.0378a1,1,0,0,0,0,2,1,1,0,0,0,0-2Z" fill="#5ebbe0"/><path d="M9,44.0378a1,1,0,0,0,0,2,1,1,0,0,0,0-2Z" fill="#297cf5" opacity="0.862" style="isolation:isolate"/><path d="M13,44.0378a1,1,0,1,0,1,1A.9448.9448,0,0,0,13,44.0378Z" fill="#5ebbe0"/><path d="M17,44.0378a1,1,0,1,0,1,1A.9448.9448,0,0,0,17,44.0378Z" fill="#5ebbe0"/><path d="M21,44.0378a1,1,0,1,0,1,1A.9448.9448,0,0,0,21,44.0378Z" fill="#5ebbe0"/><path d="M25,44.0378a1,1,0,1,0,1,1A.9448.9448,0,0,0,25,44.0378Z" fill="#5ebbe0"/><path d="M29,44.0378a1,1,0,1,0,1,1A.9448.9448,0,0,0,29,44.0378Z" fill="#5ebbe0"/><path d="M33,44.0378a1,1,0,1,0,1,1A.9448.9448,0,0,0,33,44.0378Z" fill="#5ebbe0"/><path d="M37,44.0378a1,1,0,1,0,1,1A.9448.9448,0,0,0,37,44.0378Z" fill="#5ebbe0"/><path d="M41,44.0378a1,1,0,1,0,1,1A.9448.9448,0,0,0,41,44.0378Z" fill="#5ebbe0"/><path d="M45,44.0378a1,1,0,1,0,1,1A.9448.9448,0,0,0,45,44.0378Z" fill="#5ebbe0"/><path d="M49,44.0378a1,1,0,1,0,1,1A.9448.9448,0,0,0,49,44.0378Z" fill="#5ebbe0"/><path d="M53,44.0378a1,1,0,1,0,1,1A.9448.9448,0,0,0,53,44.0378Z" fill="#5ebbe0"/><path d="M57,44.0378a1,1,0,1,0,1,1A.9448.9448,0,0,0,57,44.0378Z" fill="#5ebbe0"/><path d="M61,44.0378a1,1,0,1,0,1,1A.9448.9448,0,0,0,61,44.0378Z" fill="#5ebbe0"/><path d="M3,46.0378a1,1,0,0,0,0,2,1,1,0,0,0,0-2Z" fill="#5ebbe0"/><path d="M7,46.0378a1,1,0,0,0,0,2,1,1,0,0,0,0-2Z" fill="#5ebbe0"/><path d="M11,46.0378a1,1,0,0,0,0,2,1,1,0,0,0,0-2Z" fill="#5ebbe0"/><path d="M15,46.0378a1,1,0,1,0,1,1A.9448.9448,0,0,0,15,46.0378Z" fill="#5ebbe0"/><path d="M19,46.0378a1,1,0,1,0,1,1A.9448.9448,0,0,0,19,46.0378Z" fill="#5ebbe0"/><path d="M23,46.0378a1,1,0,1,0,1,1A.9448.9448,0,0,0,23,46.0378Z" fill="#5ebbe0"/><path d="M27,46.0378a1,1,0,1,0,1,1A.9448.9448,0,0,0,27,46.0378Z" fill="#5ebbe0"/><path d="M31,46.0378a1,1,0,1,0,1,1A.9448.9448,0,0,0,31,46.0378Z" fill="#5ebbe0"/><path d="M35,46.0378a1,1,0,1,0,1,1A.9448.9448,0,0,0,35,46.0378Z" fill="#5ebbe0"/><path d="M39,46.0378a1,1,0,1,0,1,1A.9448.9448,0,0,0,39,46.0378Z" fill="#5ebbe0"/><path d="M43,46.0378a1,1,0,1,0,1,1A.9448.9448,0,0,0,43,46.0378Z" fill="#5ebbe0"/><path d="M47,46.0378a1,1,0,1,0,1,1A.9448.9448,0,0,0,47,46.0378Z" fill="#5ebbe0"/><path d="M51,46.0378a1,1,0,1,0,1,1A.9448.9448,0,0,0,51,46.0378Z" fill="#5ebbe0"/><path d="M55,46.0378a1,1,0,1,0,1,1A.9448.9448,0,0,0,55,46.0378Z" fill="#5ebbe0"/><path d="M59,46.0378a1,1,0,1,0,1,1A.9448.9448,0,0,0,59,46.0378Z" fill="#5ebbe0"/><path d="M63,46.0378a1,1,0,1,0,1,1A.9448.9448,0,0,0,63,46.0378Z" fill="#5ebbe0"/><path d="M17,47.5378a1,1,0,1,0,1,1A.9448.9448,0,0,0,17,47.5378Z" fill="#5ebbe0"/><path d="M49,47.5378a1,1,0,1,0,1,1A.9448.9448,0,0,0,49,47.5378Z" fill="#5ebbe0"/><path d="M1,48.0378a1,1,0,0,0,0,2,1,1,0,0,0,0-2Z" fill="#5ebbe0"/><path d="M5,48.0378a1,1,0,0,0,0,2,1,1,0,0,0,0-2Z" fill="#5ebbe0"/><path d="M9,48.0378a1,1,0,0,0,0,2,1,1,0,0,0,0-2Z" fill="#5ebbe0"/><path d="M13,48.0378a1,1,0,1,0,1,1A.9448.9448,0,0,0,13,48.0378Z" fill="#5ebbe0"/><path d="M21,48.0378a1,1,0,1,0,1,1A.9448.9448,0,0,0,21,48.0378Z" fill="#5ebbe0"/><path d="M25,48.0378a1,1,0,1,0,1,1A.9448.9448,0,0,0,25,48.0378Z" fill="#61a3e9"/><path d="M29,48.0378a1,1,0,1,0,1,1A.9448.9448,0,0,0,29,48.0378Z" fill="#5ebbe0"/><path d="M33,48.0378a1,1,0,1,0,1,1A.9448.9448,0,0,0,33,48.0378Z" fill="#5ebbe0"/><path d="M37,48.0378a1,1,0,1,0,1,1A.9448.9448,0,0,0,37,48.0378Z" fill="#5ebbe0"/><path d="M41,48.0378a1,1,0,1,0,1,1A.9448.9448,0,0,0,41,48.0378Z" fill="#5ebbe0"/><path d="M45,48.0378a1,1,0,1,0,1,1A.9448.9448,0,0,0,45,48.0378Z" fill="#5ebbe0"/><path d="M53,48.0378a1,1,0,1,0,1,1A.9448.9448,0,0,0,53,48.0378Z" fill="#5ebbe0"/><path d="M57,48.0378a1,1,0,1,0,1,1A.9448.9448,0,0,0,57,48.0378Z" fill="#5ebbe0"/><path d="M61,48.0378a1,1,0,1,0,1,1A.9448.9448,0,0,0,61,48.0378Z" fill="#60b4e3"/><path d="M3,50.0378a1,1,0,0,0,0,2,1,1,0,0,0,0-2Z" fill="#5ebbe0"/><path d="M7,50.0378a1,1,0,0,0,0,2,1,1,0,0,0,0-2Z" fill="#5ebbe0"/><path d="M11,50.0378a1,1,0,0,0,0,2,1,1,0,0,0,0-2Z" fill="#5ebbe0"/><path d="M15,50.0378a1,1,0,1,0,1,1A.9448.9448,0,0,0,15,50.0378Z" fill="#5ebbe0"/><path d="M19,50.0378a1,1,0,1,0,1,1A.9448.9448,0,0,0,19,50.0378Z" fill="#5ebbe0"/><path d="M23,50.0378a1,1,0,1,0,1,1A.9448.9448,0,0,0,23,50.0378Z" fill="#5ebbe0"/><path d="M27,50.0378a1,1,0,1,0,1,1A.9448.9448,0,0,0,27,50.0378Z" fill="#5ebbe0"/><path d="M31,50.0378a1,1,0,1,0,1,1A.9448.9448,0,0,0,31,50.0378Z" fill="#5ebbe0"/><path d="M35,50.0378a1,1,0,1,0,1,1A.9448.9448,0,0,0,35,50.0378Z" fill="#5ebbe0"/><path d="M39,50.0378a1,1,0,1,0,1,1A.9448.9448,0,0,0,39,50.0378Z" fill="#5ebbe0"/><path d="M43,50.0378a1,1,0,1,0,1,1A.9448.9448,0,0,0,43,50.0378Z" fill="#5ebbe0"/><path d="M47,50.0378a1,1,0,1,0,1,1A.9448.9448,0,0,0,47,50.0378Z" fill="#5ebbe0"/><path d="M51,50.0378a1,1,0,1,0,1,1A.9448.9448,0,0,0,51,50.0378Z" fill="#3cafee"/><path d="M55,50.0378a1,1,0,1,0,1,1A.9448.9448,0,0,0,55,50.0378Z" fill="#5ebbe0"/><path d="M59,50.0378a1,1,0,1,0,1,1A.9448.9448,0,0,0,59,50.0378Z" fill="#5ebbe0"/><path d="M63,50.0378a1,1,0,1,0,1,1A.9448.9448,0,0,0,63,50.0378Z" fill="#4ca3d2"/><path d="M1,52.0378a1,1,0,0,0,0,2,1,1,0,0,0,0-2Z" fill="#5ebbe0"/><path d="M5,52.0378a1,1,0,0,0,0,2,1,1,0,0,0,0-2Z" fill="#5ebbe0"/><path d="M9,52.0378a1,1,0,0,0,0,2,1,1,0,0,0,0-2Z" fill="#5ebbe0"/><path d="M13,52.0378a1,1,0,1,0,1,1A.9448.9448,0,0,0,13,52.0378Z" fill="#5ebbe0"/><path d="M17,52.0378a1,1,0,1,0,1,1A.9448.9448,0,0,0,17,52.0378Z" fill="#5ebbe0"/><path d="M21,52.0378a1,1,0,1,0,1,1A.9448.9448,0,0,0,21,52.0378Z" fill="#5ebbe0"/><path d="M25,52.0378a1,1,0,1,0,1,1A.9448.9448,0,0,0,25,52.0378Z" fill="#5ebbe0"/><path d="M29,52.0378a1,1,0,1,0,1,1A.9448.9448,0,0,0,29,52.0378Z" fill="#5ebbe0"/><path d="M33,52.0378a1,1,0,1,0,1,1A.9448.9448,0,0,0,33,52.0378Z" fill="#5ebbe0"/><path d="M37,52.0378a1,1,0,1,0,1,1A.9448.9448,0,0,0,37,52.0378Z" fill="#5ebbe0"/><path d="M41,52.0378a1,1,0,1,0,1,1A.9448.9448,0,0,0,41,52.0378Z" fill="#5ebbe0"/><path d="M45,52.0378a1,1,0,1,0,1,1A.9448.9448,0,0,0,45,52.0378Z" fill="#5ebbe0"/><path d="M49,52.0378a1,1,0,1,0,1,1A.9448.9448,0,0,0,49,52.0378Z" fill="#5ebbe0"/><path d="M53,52.0378a1,1,0,1,0,1,1A.9448.9448,0,0,0,53,52.0378Z" fill="#5ebbe0"/><path d="M57,52.0378a1,1,0,1,0,1,1A.9448.9448,0,0,0,57,52.0378Z" fill="#5ebbe0"/><path d="M61,52.0378a1,1,0,1,0,1,1A.9448.9448,0,0,0,61,52.0378Z" fill="#5ebbe0"/><path d="M3,54.0378a1,1,0,0,0,0,2,1,1,0,0,0,0-2Z" fill="#5ebbe0"/><path d="M7,54.0378a1,1,0,0,0,0,2,1,1,0,0,0,0-2Z" fill="#5ebbe0"/><path d="M11,54.0378a1,1,0,0,0,0,2,1,1,0,1,0,0-2Z" fill="#5ebbe0"/><path d="M15,54.0378a1,1,0,1,0,1,1A.9448.9448,0,0,0,15,54.0378Z" fill="#5ebbe0"/><path d="M19,54.0378a1,1,0,1,0,1,1A.9448.9448,0,0,0,19,54.0378Z" fill="#5ebbe0"/><path d="M23,54.0378a1,1,0,1,0,1,1A.9448.9448,0,0,0,23,54.0378Z" fill="#5ebbe0"/><path d="M27,54.0378a1,1,0,1,0,1,1A.9448.9448,0,0,0,27,54.0378Z" fill="#5ebbe0"/><path d="M31,54.0378a1,1,0,1,0,1,1A.9448.9448,0,0,0,31,54.0378Z" fill="#5ebbe0"/><path d="M35,54.0378a1,1,0,1,0,1,1A.9448.9448,0,0,0,35,54.0378Z" fill="#5ebbe0"/><path d="M39,54.0378a1,1,0,1,0,1,1A.9448.9448,0,0,0,39,54.0378Z" fill="#5ebbe0"/><path d="M43,54.0378a1,1,0,1,0,1,1A.9448.9448,0,0,0,43,54.0378Z" fill="#4ca3d2"/><path d="M47,54.0378a1,1,0,1,0,1,1A.9448.9448,0,0,0,47,54.0378Z" fill="#5ebbe0"/><path d="M51,54.0378a1,1,0,1,0,1,1A.9448.9448,0,0,0,51,54.0378Z" fill="#5ebbe0"/><path d="M55,54.0378a1,1,0,1,0,1,1A.9448.9448,0,0,0,55,54.0378Z" fill="#5ebbe0"/><path d="M59,54.0378a1,1,0,1,0,1,1A.9448.9448,0,0,0,59,54.0378Z" fill="#5ebbe0"/><path d="M63,54.0378a1,1,0,1,0,1,1A.9448.9448,0,0,0,63,54.0378Z" fill="#5ebbe0"/><path d="M13,55.5378a1,1,0,1,0,1,1A.9448.9448,0,0,0,13,55.5378Z" fill="#5ebbe0"/><path d="M45,55.5378a1,1,0,1,0,1,1A.9448.9448,0,0,0,45,55.5378Z" fill="#5ebbe0"/><path d="M1,56.0378a1,1,0,0,0,0,2,1,1,0,0,0,0-2Z" fill="#5ebbe0"/><path d="M5,56.0378a1,1,0,0,0,0,2,1,1,0,0,0,0-2Z" fill="#5ebbe0"/><path d="M9,56.0378a1,1,0,0,0,0,2,1,1,0,1,0,0-2Z" fill="#5ebbe0"/><path d="M17,56.0378a1,1,0,1,0,1,1A.9448.9448,0,0,0,17,56.0378Z" fill="#5ebbe0"/><path d="M21,56.0378a1,1,0,1,0,1,1A.9448.9448,0,0,0,21,56.0378Z" fill="#5ebbe0"/><path d="M25,56.0378a1,1,0,1,0,1,1A.9448.9448,0,0,0,25,56.0378Z" fill="#5ebbe0"/><path d="M29,56.0378a1,1,0,1,0,1,1A.9448.9448,0,0,0,29,56.0378Z" fill="#5ebbe0"/><path d="M33,56.0378a1,1,0,1,0,1,1A.9448.9448,0,0,0,33,56.0378Z" fill="#5ebbe0"/><path d="M37,56.0378a1,1,0,1,0,1,1A.9448.9448,0,0,0,37,56.0378Z" fill="#60b4e3"/><path d="M41,56.0378a1,1,0,1,0,1,1A.9448.9448,0,0,0,41,56.0378Z" fill="#5ebbe0"/><path d="M49,56.0378a1,1,0,1,0,1,1A.9448.9448,0,0,0,49,56.0378Z" fill="#5ebbe0"/><path d="M53,56.0378a1,1,0,1,0,1,1A.9448.9448,0,0,0,53,56.0378Z" fill="#5ebbe0"/><path d="M57,56.0378a1,1,0,1,0,1,1A.9448.9448,0,0,0,57,56.0378Z" fill="#5ebbe0"/><path d="M61,56.0378a1,1,0,1,0,1,1A.9448.9448,0,0,0,61,56.0378Z" fill="#5ebbe0"/><path d="M3,58.0378a1,1,0,0,0,0,2,1,1,0,0,0,0-2Z" fill="#5ebbe0"/><path d="M7,58.0378a1,1,0,0,0,0,2,1,1,0,1,0,0-2Z" fill="#5ebbe0"/><path d="M11,58.0378a1,1,0,0,0,0,2,1,1,0,1,0,0-2Z" fill="#5ebbe0"/><path d="M15,58.0378a1,1,0,1,0,1,1A.9448.9448,0,0,0,15,58.0378Z" fill="#5ebbe0"/><path d="M19,58.0378a1,1,0,1,0,1,1A.9448.9448,0,0,0,19,58.0378Z" fill="#5ebbe0"/><path d="M23,58.0378a1,1,0,1,0,1,1A.9448.9448,0,0,0,23,58.0378Z" fill="#5ebbe0"/><path d="M27,58.0378a1,1,0,1,0,1,1A.9448.9448,0,0,0,27,58.0378Z" fill="#5ebbe0"/><path d="M31,58.0378a1,1,0,1,0,1,1A.9448.9448,0,0,0,31,58.0378Z" fill="#5ebbe0"/><path d="M35,58.0378a1,1,0,1,0,1,1A.9448.9448,0,0,0,35,58.0378Z" fill="#5ebbe0"/><path d="M39,58.0378a1,1,0,1,0,1,1A.9448.9448,0,0,0,39,58.0378Z" fill="#5ebbe0"/><path d="M43,58.0378a1,1,0,1,0,1,1A.9448.9448,0,0,0,43,58.0378Z" fill="#3cafee"/><path d="M47,58.0378a1,1,0,1,0,1,1A.9448.9448,0,0,0,47,58.0378Z" fill="#5ebbe0"/><path d="M51,58.0378a1,1,0,1,0,1,1A.9448.9448,0,0,0,51,58.0378Z" fill="#5ebbe0"/><path d="M55,58.0378a1,1,0,1,0,1,1A.9448.9448,0,0,0,55,58.0378Z" fill="#5ebbe0"/><path d="M59,58.0378a1,1,0,1,0,1,1A.9448.9448,0,0,0,59,58.0378Z" fill="#5ebbe0"/><path d="M63,58.0378a1,1,0,1,0,1,1A.9448.9448,0,0,0,63,58.0378Z" fill="#5ebbe0"/><path d="M1,60.0378a1,1,0,0,0,0,2,1,1,0,0,0,0-2Z" fill="#5ebbe0"/><path d="M5,60.0378a1,1,0,0,0,0,2,1,1,0,1,0,0-2Z" fill="#5ebbe0"/><path d="M9,60.0378a1,1,0,0,0,0,2,1,1,0,1,0,0-2Z" fill="#5ebbe0"/><path d="M13,60.0378a1,1,0,1,0,1,1A.9448.9448,0,0,0,13,60.0378Z" fill="#5ebbe0"/><path d="M17,60.0378a1,1,0,1,0,1,1A.9448.9448,0,0,0,17,60.0378Z" fill="#5ebbe0"/><path d="M21,60.0378a1,1,0,1,0,1,1A.9448.9448,0,0,0,21,60.0378Z" fill="#5ebbe0"/><path d="M25,60.0378a1,1,0,1,0,1,1A.9448.9448,0,0,0,25,60.0378Z" fill="#5ebbe0"/><path d="M29,60.0378a1,1,0,1,0,1,1A.9448.9448,0,0,0,29,60.0378Z" fill="#5ebbe0"/><path d="M33,60.0378a1,1,0,1,0,1,1A.9448.9448,0,0,0,33,60.0378Z" fill="#5ebbe0"/><path d="M37,60.0378a1,1,0,1,0,1,1A.9448.9448,0,0,0,37,60.0378Z" fill="#5ebbe0"/><path d="M41,60.0378a1,1,0,1,0,1,1A.9448.9448,0,0,0,41,60.0378Z" fill="#5ebbe0"/><path d="M45,60.0378a1,1,0,1,0,1,1A.9448.9448,0,0,0,45,60.0378Z" fill="#5ebbe0"/><path d="M49,60.0378a1,1,0,1,0,1,1A.9448.9448,0,0,0,49,60.0378Z" fill="#5ebbe0"/><path d="M53,60.0378a1,1,0,1,0,1,1A.9448.9448,0,0,0,53,60.0378Z" fill="#5ebbe0"/><path d="M57,60.0378a1,1,0,1,0,1,1A.9448.9448,0,0,0,57,60.0378Z" fill="#5ebbe0"/><path d="M61,60.0378a1,1,0,1,0,1,1A.9448.9448,0,0,0,61,60.0378Z" fill="#5ebbe0"/><path d="M3,62.0378a1,1,0,0,0,0,2,1,1,0,0,0,0-2Z" fill="#5ebbe0"/><path d="M7,62.0378a1,1,0,0,0,0,2,1,1,0,0,0,0-2Z" fill="#4abaf7"/><path d="M11,62.0378a1,1,0,0,0,0,2,1,1,0,0,0,0-2Z" fill="#4abaf7"/><path d="M15,62.0378a1,1,0,1,0,1,1A.9448.9448,0,0,0,15,62.0378Z" fill="#5ebbe0"/><path d="M19,62.0378a1,1,0,1,0,1,1A.9448.9448,0,0,0,19,62.0378Z" fill="#5ebbe0"/><path d="M23,62.0378a1,1,0,1,0,1,1A.9448.9448,0,0,0,23,62.0378Z" fill="#5ebbe0"/><path d="M27,62.0378a1,1,0,1,0,1,1A.9448.9448,0,0,0,27,62.0378Z" fill="#5ebbe0"/><path d="M31,62.0378a1,1,0,1,0,1,1A.9448.9448,0,0,0,31,62.0378Z" fill="#5ebbe0"/><path d="M35,62.0378a1,1,0,1,0,1,1A.9448.9448,0,0,0,35,62.0378Z" fill="#5ebbe0"/><path d="M39,62.0378a1,1,0,1,0,1,1A.9448.9448,0,0,0,39,62.0378Z" fill="#5ebbe0"/><path d="M43,62.0378a1,1,0,1,0,1,1A.9448.9448,0,0,0,43,62.0378Z" fill="#4abaf7"/><path d="M47,62.0378a1,1,0,1,0,1,1A.9448.9448,0,0,0,47,62.0378Z" fill="#5ebbe0"/><path d="M51,62.0378a1,1,0,1,0,1,1A.9448.9448,0,0,0,51,62.0378Z" fill="#5ebbe0"/><path d="M55,62.0378a1,1,0,1,0,1,1A.9448.9448,0,0,0,55,62.0378Z" fill="#5ebbe0"/><path d="M59,62.0378a1,1,0,1,0,1,1A.9448.9448,0,0,0,59,62.0378Z" fill="#5ebbe0"/><path d="M63,62.0378a1,1,0,1,0,1,1A.9448.9448,0,0,0,63,62.0378Z" fill="#5ebbe0"/></g></g></g></svg>
