<svg xmlns="http://www.w3.org/2000/svg" width="32" height="22" viewBox="0.001 0 32 22" version="1.1"><metadata/><g transform="translate(3.2645841,-290.03131)"><path style="color:#000000;clip-rule:nonzero;display:inline;overflow:visible;visibility:visible;opacity:1;isolation:auto;mix-blend-mode:normal;color-interpolation:sRGB;color-interpolation-filters:linearRGB;solid-color:#000000;solid-opacity:1;fill:#d14545;fill-opacity:1;fill-rule:nonzero;stroke:none;stroke-width:4;stroke-linecap:round;stroke-linejoin:bevel;stroke-miterlimit:4;stroke-dasharray:none;stroke-dashoffset:0;stroke-opacity:1;marker:none;color-rendering:auto;image-rendering:auto;shape-rendering:auto;text-rendering:auto;enable-background:accumulate" d="M 11,0 C 4.9248678,0 0,4.9248678 0,11 0,17.075132 4.9248678,22 11,22 l 10,0 C 27.075132,22 32,17.075132 32,11 32,4.9248678 27.075132,0 21,0 Z" transform="translate(-3.2635841,290.03131)"/><path style="color:#000000;clip-rule:nonzero;display:inline;overflow:visible;visibility:visible;opacity:1;isolation:auto;mix-blend-mode:normal;color-interpolation:sRGB;color-interpolation-filters:linearRGB;solid-color:#000000;solid-opacity:1;fill:#f0e9d8;fill-opacity:1;fill-rule:nonzero;stroke:none;stroke-width:4;stroke-linecap:round;stroke-linejoin:bevel;stroke-miterlimit:4;stroke-dasharray:none;stroke-dashoffset:0;stroke-opacity:1;marker:none;color-rendering:auto;image-rendering:auto;shape-rendering:auto;text-rendering:auto;enable-background:accumulate" d="m 11,2 a 9,9 0 0 0 -9,9 9,9 0 0 0 9,9 l 10,0 A 9,9 0 0 0 30,11 9,9 0 0 0 21,2 L 11,2 Z" transform="translate(-3.2635841,290.03131)"/></g></svg>
